<?xml version="1.0" encoding="UTF-8"?>
<svg width="400" height="300" viewBox="0 0 400 300" fill="none" xmlns="http://www.w3.org/2000/svg">
  <!-- Background -->
  <rect width="400" height="300" rx="20" fill="#F8F9FA"/>
  
  <!-- Gears -->
  <g transform="translate(100, 150)">
    <path d="M0,-40 L10,-35 L15,-45 L5,-50 L0,-40" fill="#3498db"/>
    <path d="M0,40 L10,35 L15,45 L5,50 L0,40" fill="#3498db"/>
    <path d="M-40,0 L-35,10 L-45,15 L-50,5 L-40,0" fill="#3498db"/>
    <path d="M40,0 L35,10 L45,15 L50,5 L40,0" fill="#3498db"/>
    <circle cx="0" cy="0" r="20" fill="#3498db"/>
    <circle cx="0" cy="0" r="10" fill="#F8F9FA"/>
  </g>
  
  <!-- Connected Lines -->
  <path d="M150,150 L250,150" stroke="#2ecc71" stroke-width="4"/>
  <path d="M200,100 L200,200" stroke="#2ecc71" stroke-width="4"/>
  
  <!-- Small Gears -->
  <g transform="translate(250, 100)">
    <circle cx="0" cy="0" r="15" fill="#3498db"/>
    <circle cx="0" cy="0" r="7" fill="#F8F9FA"/>
  </g>
  
  <g transform="translate(250, 200)">
    <circle cx="0" cy="0" r="15" fill="#3498db"/>
    <circle cx="0" cy="0" r="7" fill="#F8F9FA"/>
  </g>
</svg> 